<?xml version="1.0" encoding="UTF-8"?>
<svg version="1.1" xmlns="http://www.w3.org/2000/svg" width="180" height="180">
<path d="M0 0 C59.4 0 118.8 0 180 0 C180 59.4 180 118.8 180 180 C120.6 180 61.2 180 0 180 C0 120.6 0 61.2 0 0 Z " fill="#F2C6AE" transform="translate(0,0)"/>
<path d="M0 0 C22.11 0 44.22 0 67 0 C66.33286829 4.00279027 65.7351151 7.15140884 64.4375 10.875 C64.16808594 11.65617188 63.89867187 12.43734375 63.62109375 13.2421875 C63.41613281 13.82226562 63.21117187 14.40234375 63 15 C62.34 15 61.68 15 61 15 C60.34 16.65 59.68 18.3 59 20 C58.01 20 57.02 20 56 20 C56.66 20.33 57.32 20.66 58 21 C58.59772099 23.9829661 58.74337815 26.96330805 59 30 C55.37 30 51.74 30 48 30 C48.1074991 41.14398592 48.22013215 52.28790695 48.33933926 63.43177414 C48.39452874 68.60618722 48.44794244 73.780606 48.49731445 78.95507812 C48.54501655 83.94771492 48.59736157 88.94028334 48.65294075 93.93283844 C48.67333779 95.83861846 48.69205524 97.74441722 48.70907402 99.65023041 C48.73317665 102.31734493 48.76322328 104.98433066 48.79467773 107.65136719 C48.80331093 108.8360408 48.80331093 108.8360408 48.81211853 110.04464722 C48.85856425 113.50413694 48.90727658 116.70313433 50 120 C51.88316159 121.10836423 51.88316159 121.10836423 54 122 C54.474375 122.515625 54.94875 123.03125 55.4375 123.5625 C59.2986158 127.11472653 66.31489849 126.32188935 71.3125 126.5625 C72.14845703 126.60568359 72.98441406 126.64886719 73.84570312 126.69335938 C75.89696935 126.79885307 77.9484648 126.89987315 80 127 C78.58867657 137.51064551 76.36658176 147.65465686 74 158 C72.35 165.26 70.7 172.52 69 180 C46.23 180 23.46 180 0 180 C0 120.6 0 61.2 0 0 Z " fill="#F5D0B7" transform="translate(0,0)"/>
<path d="M0 0 C-0.37125 0.928125 -0.7425 1.85625 -1.125 2.8125 C-1.41375 3.864375 -1.7025 4.91625 -2 6 C-1.34 6.99 -0.68 7.98 0 9 C0.1693295 11.52272258 0.23336826 13.91957416 0.1875 16.4375 C0.18105469 17.75621094 0.17460938 19.07492188 0.16796875 20.43359375 C0.03837648 23.18516918 -0.16940249 25.40189099 -1 28 C-0.34 28.33 0.32 28.66 1 29 C0.505 30.485 0.505 30.485 0 32 C1.97536745 31.65213292 1.97536745 31.65213292 4 31 C4.33 30.34 4.66 29.68 5 29 C4.01 29 3.02 29 2 29 C0.56695936 26.13391871 0.69355845 24.18699217 1 21 C3.96283035 15.41620434 7.93476408 11.56999889 13.5625 8.6875 C16.15528482 7.95620172 18.31934116 7.84681949 21 8 C21 8.99 21 9.98 21 11 C22.32 11 23.64 11 25 11 C25.0825 11.94875 25.165 12.8975 25.25 13.875 C25.65074923 17.10461791 25.65074923 17.10461791 28.0625 18.375 C29.0215625 18.684375 29.0215625 18.684375 30 19 C29.67 19.66 29.34 20.32 29 21 C29.66 21.33 30.32 21.66 31 22 C30.34 23.32 29.68 24.64 29 26 C29.515625 26.391875 30.03125 26.78375 30.5625 27.1875 C32 29 32 29 31.8125 31.625 C31 34 31 34 29 35 C30.32 36.65 31.64 38.3 33 40 C31.35 40.66 29.7 41.32 28 42 C29.98 42.495 29.98 42.495 32 43 C32 43.66 32 44.32 32 45 C28.71303767 45.79953138 27.28976808 46.09658936 24 45 C24.495 46.051875 24.495 46.051875 25 47.125 C26.09044562 50.26003116 26.15322643 52.70563182 26 56 C24.35 55.34 22.7 54.68 21 54 C21.99 56.475 21.99 56.475 23 59 C19.73045798 58.43628586 18.17424117 57.50037734 16 55 C15.67 57.31 15.34 59.62 15 62 C10.70073737 60.40768051 8.64994267 57.60686641 6 54 C6 53.01 6 52.02 6 51 C5.67 51.33 5.34 51.66 5 52 C6.12451727 54.9719385 7.22293791 57.33440687 9 60 C8.01 60.33 7.02 60.66 6 61 C8.08906068 63.98343979 10.17455951 66.68345686 13 69 C15.97210105 69.32549042 18.03706322 68.70306974 21 68 C21.66 68.66 22.32 69.32 23 70 C22.69347955 72.9425963 22.32728846 75.34542308 21 78 C20.34 78 19.68 78 19 78 C19 77.01 19 76.02 19 75 C18.34 76.98 17.68 78.96 17 81 C15.515 80.505 15.515 80.505 14 80 C12.8125 77.4375 12.8125 77.4375 12 75 C9.03 75.495 9.03 75.495 6 76 C6 74.68 6 73.36 6 72 C6.66 71.67 7.32 71.34 8 71 C6.7625 69.576875 6.7625 69.576875 5.5 68.125 C3 65.25 3 65.25 3 63 C-0.465 63.495 -0.465 63.495 -4 64 C-4 64.99 -4 65.98 -4 67 C-2.68 67 -1.36 67 0 67 C-0.875 70.875 -0.875 70.875 -2 72 C-0.68 72.33 0.64 72.66 2 73 C2.495 71.515 2.495 71.515 3 70 C5.75494996 72.75494996 5.754059 75.07416511 6.08984375 78.859375 C6 81 6 81 4.4375 83.1875 C1.06588468 84.31137177 -0.80927551 83.37781285 -4 82 C-4.99 84.31 -5.98 86.62 -7 89 C-9.1385485 86.8614515 -9.42655063 85.86724686 -10 83 C-11.6396875 83.309375 -11.6396875 83.309375 -13.3125 83.625 C-17 84 -17 84 -20 82 C-19.67 80.02 -19.34 78.04 -19 76 C-19.7425 76.165 -20.485 76.33 -21.25 76.5 C-24 77 -24 77 -28 77 C-28.33 78.65 -28.66 80.3 -29 82 C-33.75 80.125 -33.75 80.125 -36 79 C-36.6875 77 -36.6875 77 -37 75 C-36.505 74.505 -36.505 74.505 -36 74 C-36.66 73.67 -37.32 73.34 -38 73 C-37.34 71.68 -36.68 70.36 -36 69 C-30.25 69.875 -30.25 69.875 -28 71 C-28 70.34 -28 69.68 -28 69 C-27.34 69 -26.68 69 -26 69 C-26 68.34 -26 67.68 -26 67 C-25.34 67 -24.68 67 -24 67 C-23.34 65.02 -22.68 63.04 -22 61 C-22.66 60.67 -23.32 60.34 -24 60 C-23.67 59.34 -23.34 58.68 -23 58 C-26.24565858 57.65944803 -26.24565858 57.65944803 -28.6875 60.5 C-29.450625 61.325 -30.21375 62.15 -31 63 C-31.99 59.535 -31.99 59.535 -33 56 C-33.5775 56.680625 -34.155 57.36125 -34.75 58.0625 C-35.4925 58.701875 -36.235 59.34125 -37 60 C-39.25 59.75 -39.25 59.75 -41 59 C-40.01 58.071875 -40.01 58.071875 -39 57.125 C-36.7715451 55.24362573 -36.7715451 55.24362573 -37 53 C-37.598125 53.495 -38.19625 53.99 -38.8125 54.5 C-41 56 -41 56 -44 56 C-43.53199289 51.94393835 -43.12046792 48.53411321 -41 45 C-43.97 45.495 -43.97 45.495 -47 46 C-47.33 45.34 -47.66 44.68 -48 44 C-46.68 43.34 -45.36 42.68 -44 42 C-45.32 41.34 -46.64 40.68 -48 40 C-46.25 36.125 -46.25 36.125 -44 35 C-45.32 33.68 -46.64 32.36 -48 31 C-47.34 30.67 -46.68 30.34 -46 30 C-46.66 29.67 -47.32 29.34 -48 29 C-47.505 27.515 -47.505 27.515 -47 26 C-46.34 26 -45.68 26 -45 26 C-45.350625 25.236875 -45.70125 24.47375 -46.0625 23.6875 C-47 21 -47 21 -46 18 C-43.9375 17.3125 -43.9375 17.3125 -42 17 C-41.67 15.02 -41.34 13.04 -41 11 C-39.35 11 -37.7 11 -36 11 C-36.33 9.68 -36.66 8.36 -37 7 C-28.45905139 8.14670143 -23.00987492 11.38815009 -17.5 18 C-15.8503129 21.29937419 -15.65345938 23.36132348 -16 27 C-17.98 27.99 -17.98 27.99 -20 29 C-19.67 29.66 -19.34 30.32 -19 31 C-18.01 31 -17.02 31 -16 31 C-15.8453125 30.071875 -15.8453125 30.071875 -15.6875 29.125 C-15 27 -15 27 -12 25 C-11.505 23.515 -11.505 23.515 -11 22 C-10.34 22 -9.68 22 -9 22 C-9 20.35 -9 18.7 -9 17 C-11.92824652 16.02391783 -13.95613276 15.91773332 -17 16 C-16.34 13.69 -15.68 11.38 -15 9 C-14.34 9 -13.68 9 -13 9 C-13.495 5.04 -13.495 5.04 -14 1 C-12.68 1.33 -11.36 1.66 -10 2 C-10 1.34 -10 0.68 -10 0 C-6.7169902 -1.6415049 -3.57454967 -0.51888624 0 0 Z " fill="#FCFCFB" transform="translate(99,36)"/>
<path d="M0 0 C28.38 0 56.76 0 86 0 C87.25075415 45.72201285 87.25075415 45.72201285 86.96871948 65.36203003 C86.94806034 67.02495962 86.93742986 68.68804683 86.93728638 70.35110474 C86.91516332 85.80493939 86.91516332 85.80493939 81.57250977 91.55908203 C81.05358154 92.03458496 80.53465332 92.51008789 80 93 C79.48663086 93.54567627 78.97326172 94.09135254 78.44433594 94.65356445 C74.34887947 98.47142153 66.32385927 97.36311897 61.08203125 97.62109375 C57.89807358 97.69156611 57.89807358 97.69156611 56 100 C55.67 99.34 55.34 98.68 55 98 C53.18674449 98.11351517 51.37436643 98.24112961 49.5625 98.375 C48.04849609 98.47941406 48.04849609 98.47941406 46.50390625 98.5859375 C45.67761719 98.72257812 44.85132813 98.85921875 44 99 C43.67 99.66 43.34 100.32 43 101 C42.45649902 100.514104 41.91299805 100.02820801 41.35302734 99.52758789 C38.47543967 97.65945487 36.7608931 97.60501134 33.3515625 97.55859375 C32.26359375 97.53216797 31.175625 97.50574219 30.0546875 97.47851562 C28.92289063 97.46498047 27.79109375 97.45144531 26.625 97.4375 C16.5774489 97.28194732 9.49568091 97.15496814 2 90 C-0.65937203 86.22745627 -0.26733579 82.08105479 -0.22705078 77.65136719 C-0.22729185 76.79843708 -0.22753292 75.94550697 -0.2277813 75.0667305 C-0.22629034 72.31000533 -0.21106754 69.5535517 -0.1953125 66.796875 C-0.19237139 65.09326304 -0.19033137 63.38964928 -0.18920898 61.68603516 C-0.17872952 55.37399585 -0.15080706 49.06199525 -0.125 42.75 C-0.08375 28.6425 -0.0425 14.535 0 0 Z M41 6 C41 6.66 41 7.32 41 8 C39.68 7.67 38.36 7.34 37 7 C37.495 10.96 37.495 10.96 38 15 C37.01 15.33 36.02 15.66 35 16 C34.67 17.98 34.34 19.96 34 22 C34.94875 21.979375 35.8975 21.95875 36.875 21.9375 C40 22 40 22 42 23 C42 24.65 42 26.3 42 28 C41.34 28 40.68 28 40 28 C39.71125 28.639375 39.4225 29.27875 39.125 29.9375 C38 32 38 32 36 33 C35.34786708 35.02463255 35.34786708 35.02463255 35 37 C34.01 37 33.02 37 32 37 C31.67 36.34 31.34 35.68 31 35 C32.32 34.34 33.64 33.68 35 33 C35.63706811 28.75287928 34.90262771 26.35962109 32.5 22.9375 C28.37346282 17.86914139 23.57460388 14.17037007 17 13.1875 C15.515 13.0946875 15.515 13.0946875 14 13 C14.33 14.32 14.66 15.64 15 17 C13.35 17 11.7 17 10 17 C9.67 18.98 9.34 20.96 9 23 C7.68 23.33 6.36 23.66 5 24 C4.3121764 26.35367713 4.3121764 26.35367713 4 29 C4.66 29.99 5.32 30.98 6 32 C5.01 32.33 4.02 32.66 3 33 C3 33.66 3 34.32 3 35 C3.66 35.33 4.32 35.66 5 36 C4.34 36.66 3.68 37.32 3 38 C4.32 38.99 5.64 39.98 7 41 C5.68 41.99 4.36 42.98 3 44 C3.33 44.99 3.66 45.98 4 47 C4.99 47.33 5.98 47.66 7 48 C5.68 48.99 4.36 49.98 3 51 C6.47147842 51.74957157 6.47147842 51.74957157 10 52 C9.2575 53.36125 9.2575 53.36125 8.5 54.75 C6.72062788 58.00873038 6.72062788 58.00873038 7 62 C10.37462715 61.45276317 12.08235 60.9451 15 59 C13.47793991 61.62901288 12.15634036 63.84365964 10 66 C12.93443402 65.73343428 12.93443402 65.73343428 16 65 C16.66 64.01 17.32 63.02 18 62 C18.66 64.31 19.32 66.62 20 69 C20.94875 68.175 21.8975 67.35 22.875 66.5 C25.75 64 25.75 64 28 64 C27.67 64.99 27.34 65.98 27 67 C27.66 67 28.32 67 29 67 C28.01 69.97 28.01 69.97 27 73 C26.34 73 25.68 73 25 73 C25 73.66 25 74.32 25 75 C24.34 75 23.68 75 23 75 C23 75.66 23 76.32 23 77 C22.2575 76.649375 21.515 76.29875 20.75 75.9375 C17.87352646 74.95688402 16.73030993 74.7323561 14 76 C13.67 76.99 13.34 77.98 13 79 C13.66 79.33 14.32 79.66 15 80 C14.505 80.99 14.505 80.99 14 82 C15.25125384 85.75376152 16.5652404 86.24073289 20 88 C20.66 88 21.32 88 22 88 C22.66 86.02 23.32 84.04 24 82 C25.423125 82.2784375 25.423125 82.2784375 26.875 82.5625 C29.89868793 83.28686632 29.89868793 83.28686632 32 82 C31.67 83.98 31.34 85.96 31 88 C34.8503105 90.56687367 36.58569763 89.83288724 41 89 C41.66 90.98 42.32 92.96 43 95 C45.50037734 92.82575883 46.43628586 91.26954202 47 88 C47.9075 88.391875 48.815 88.78375 49.75 89.1875 C52.88575417 90.28042157 52.88575417 90.28042157 55.4375 89.1875 C57.66595651 86.06766089 57.09552085 83.75578355 56.65234375 80.05859375 C56.11793662 77.62679327 56.11793662 77.62679327 53 76 C53 76.99 53 77.98 53 79 C51.68 78.67 50.36 78.34 49 78 C49.66 77.34 50.32 76.68 51 76 C51 75.01 51 74.02 51 73 C49.68 73 48.36 73 47 73 C47 72.01 47 71.02 47 70 C49.31 69.67 51.62 69.34 54 69 C54.268125 69.5775 54.53625 70.155 54.8125 70.75 C56.01719859 73.0325868 57.40798115 74.9737942 59 77 C58.01 77.495 58.01 77.495 57 78 C57 79.32 57 80.64 57 82 C59.97 81.505 59.97 81.505 63 81 C63.4021875 82.2065625 63.4021875 82.2065625 63.8125 83.4375 C64.4003125 84.7059375 64.4003125 84.7059375 65 86 C65.99 86.33 66.98 86.66 68 87 C68.66 85.02 69.32 83.04 70 81 C70 81.99 70 82.98 70 84 C70.66 84 71.32 84 72 84 C73.21676146 81.42332866 74.05184833 79.62217997 73.8125 76.75 C73.4103125 75.88375 73.4103125 75.88375 73 75 C70.03946904 73.67680736 70.03946904 73.67680736 67.25 74.9375 C64 75 64 75 62.0546875 73.2890625 C60.28385586 71.24579522 58.60755213 69.17352463 57 67 C57.99 66.34 58.98 65.68 60 65 C59.525625 64.5875 59.05125 64.175 58.5625 63.75 C56.82796053 61.80731579 56.34122064 60.55915481 56 58 C56.33 57.67 56.66 57.34 57 57 C57.061875 57.721875 57.12375 58.44375 57.1875 59.1875 C58.25992966 62.8997565 60.09757913 64.51221068 63 67 C63.99 67.33 64.98 67.66 66 68 C66.33 65.69 66.66 63.38 67 61 C67.598125 61.66 68.19625 62.32 68.8125 63 C70.87501834 65.3373846 70.87501834 65.3373846 74 65 C73.01 62.525 73.01 62.525 72 60 C73.65 60.66 75.3 61.32 77 62 C76.85892253 60.54119891 76.71197585 59.08296449 76.5625 57.625 C76.48128906 56.81289062 76.40007812 56.00078125 76.31640625 55.1640625 C76.10909886 52.95727195 76.10909886 52.95727195 75 51 C76.423125 51.2784375 76.423125 51.2784375 77.875 51.5625 C80.89868793 52.28686632 80.89868793 52.28686632 83 51 C83 50.34 83 49.68 83 49 C81.02 48.505 81.02 48.505 79 48 C80.65 47.34 82.3 46.68 84 46 C82.68 44.35 81.36 42.7 80 41 C80.99 40.34 81.98 39.68 83 39 C83.43386092 35.12202338 83.43386092 35.12202338 81.5 33.25 C81.005 32.8375 80.51 32.425 80 32 C80.66 30.68 81.32 29.36 82 28 C81.34 27.67 80.68 27.34 80 27 C80 26.01 80 25.02 80 24 C78.515 23.505 78.515 23.505 77 23 C76.505 20.03 76.505 20.03 76 17 C74.68 17 73.36 17 72 17 C72 16.01 72 15.02 72 14 C65.01672381 14.57006336 59.72112503 16.72323237 55.125 22.125 C52.15922458 26.13751969 51.79292352 28.03016437 52 33 C52.495 33.99 52.495 33.99 53 35 C53.99 35 54.98 35 56 35 C55.67 35.66 55.34 36.32 55 37 C52.9375 37.625 52.9375 37.625 51 38 C51.33 36.68 51.66 35.36 52 34 C51.34 34 50.68 34 50 34 C50.24169922 33.24396484 50.24169922 33.24396484 50.48828125 32.47265625 C51.18507133 29.10572405 51.17070594 25.87356476 51.1875 22.4375 C51.20586914 21.42913086 51.20586914 21.42913086 51.22460938 20.40039062 C51.23562975 16.70121763 51.10685378 15.16028067 49 12 C49.875 8.8125 49.875 8.8125 51 6 C49.72125 5.814375 48.4425 5.62875 47.125 5.4375 C46.40570313 5.33308594 45.68640625 5.22867188 44.9453125 5.12109375 C42.91859333 4.8315703 42.91859333 4.8315703 41 6 Z " fill="#C7C6C4" transform="translate(48,30)"/>
<path d="M0 0 C0.14695312 0.92232422 0.14695312 0.92232422 0.296875 1.86328125 C0.44640625 2.67152344 0.5959375 3.47976562 0.75 4.3125 C0.88921875 5.11300781 1.0284375 5.91351563 1.171875 6.73828125 C1.78966383 9.16334498 1.78966383 9.16334498 4.02337646 10.20124817 C6 12 6 12 6.48101807 15.13212585 C6.4676944 17.06738884 6.4676944 17.06738884 6.45410156 19.04174805 C6.45468567 19.75419678 6.45526978 20.46664551 6.45587158 21.20068359 C6.45308548 23.55485819 6.42197113 25.90776547 6.390625 28.26171875 C6.38316442 29.89410205 6.37747062 31.52649431 6.37347412 33.15888977 C6.35820321 37.45485167 6.31890933 41.7502724 6.2746582 46.04602051 C6.22654162 51.2004503 6.20817837 56.35506107 6.18484497 61.50965118 C6.14605864 69.34014381 6.06941636 77.1694491 6 85 C-6.54 85 -19.08 85 -32 85 C-32 77.80675532 -31.84697984 71.17831811 -30.94140625 64.125 C-30.8327977 63.23441895 -30.72418915 62.34383789 -30.61228943 61.42626953 C-30.26855819 58.61670718 -29.91596673 55.80835251 -29.5625 53 C-29.21507143 50.19736115 -28.86954735 47.394498 -28.52534485 44.59146118 C-28.30472387 42.79679497 -28.0824143 41.00233545 -27.85832214 39.20809937 C-27.29568849 34.65458236 -26.82432455 30.1164588 -26.4921875 25.5390625 C-26.17122989 21.72076063 -25.43082144 18.77900405 -23.5625 15.375 C-23.13066406 14.55773437 -22.69882813 13.74046875 -22.25390625 12.8984375 C-21 11 -21 11 -19 10 C-19 10.66 -19 11.32 -19 12 C-17.68 12 -16.36 12 -15 12 C-15 9.69 -15 7.38 -15 5 C-14.40832031 4.89042969 -13.81664062 4.78085938 -13.20703125 4.66796875 C-9.15184762 3.8542859 -3.50030571 0 0 0 Z " fill="#F4CFB5" transform="translate(174,95)"/>
<path d="M0 0 C1.32 0 2.64 0 4 0 C4 35.31 4 70.62 4 107 C0 105 0 105 -2 102 C-2.39013716 100.0103005 -2.73202649 98.00980131 -3 96 C-3.78375 96.474375 -4.5675 96.94875 -5.375 97.4375 C-9.59210109 99.94767922 -12.0543112 100.09158683 -17 100 C-17 102.31 -17 104.62 -17 107 C-17.99 107 -18.98 107 -20 107 C-20 100.07 -20 93.14 -20 86 C-15.71 86 -11.42 86 -7 86 C-7.020625 84.2675 -7.04125 82.535 -7.0625 80.75 C-7.10356134 77.30084769 -7.00109515 74.31070838 -6 71 C-6.99 71 -7.98 71 -9 71 C-12 65.25 -12 65.25 -12 63 C-13.65 63 -15.3 63 -17 63 C-17 65.64 -17 68.28 -17 71 C-17.99 71 -18.98 71 -20 71 C-20 64.07 -20 57.14 -20 50 C-9.171875 49.61328125 -9.171875 49.61328125 -5 53 C-4.95210831 52.36550934 -4.90421661 51.73101868 -4.85487366 51.07730103 C-4.35693072 44.49124751 -3.85315642 37.90565875 -3.34594727 31.3203125 C-3.15726591 28.86046668 -2.97008683 26.40050516 -2.78442383 23.94042969 C-2.51775868 20.4104942 -2.2457464 16.88100599 -1.97265625 13.3515625 C-1.89032242 12.24632233 -1.80798859 11.14108215 -1.72315979 10.00234985 C-1.64315231 8.98144257 -1.56314484 7.96053528 -1.48071289 6.90869141 C-1.41187393 6.00712311 -1.34303497 5.10555481 -1.27210999 4.17666626 C-1 2 -1 2 0 0 Z " fill="#EFC8AD" transform="translate(176,0)"/>
<path d="M0 0 C4.62 0 9.24 0 14 0 C12.68 18.15 11.36 36.3 10 55 C8.35 53.68 6.7 52.36 5 51 C2.70370006 49.85185003 0.92301914 49.69230191 -1.625 49.4375 C-2.44226563 49.35371094 -3.25953125 49.26992188 -4.1015625 49.18359375 C-5.04128906 49.09271484 -5.04128906 49.09271484 -6 49 C-5.82609741 47.39729248 -5.82609741 47.39729248 -5.64868164 45.76220703 C-5.2140174 41.75525374 -4.77990394 37.74824092 -4.34594727 33.74121094 C-4.15892042 32.01495796 -3.97174903 30.28872063 -3.78442383 28.5625 C-3.51344362 26.06514638 -3.24303499 23.5677313 -2.97265625 21.0703125 C-2.88529205 20.267005 -2.79792786 19.46369751 -2.70791626 18.63604736 C-2.24983677 14.40311366 -1.82340657 10.16956945 -1.43359375 5.9296875 C-1 2 -1 2 0 0 Z " fill="#F6D4B7" transform="translate(162,0)"/>
<path d="M0 0 C6.93 0 13.86 0 21 0 C18.71385175 8.91597818 15.77731743 17.14619873 11.9375 25.5 C10.23751403 29.27410013 9.05383765 33.05078739 7.92578125 37.02734375 C5.92403483 43.45489237 3.40906005 49.71617347 1 56 C0.67 56 0.34 56 0 56 C0 37.52 0 19.04 0 0 Z " fill="#F3CAAD" transform="translate(1,0)"/>
<path d="M0 0 C5.28 0 10.56 0 16 0 C14.70356488 14.46548659 12.52254127 28.70009171 10 43 C9.34 43 8.68 43 8 43 C7.67 50.26 7.34 57.52 7 65 C6.67 65 6.34 65 6 65 C6 53.45 6 41.9 6 30 C2.37 30 -1.26 30 -5 30 C-3.660981 19.91797458 -1.92684219 9.98454591 0 0 Z " fill="#F5D3B6" transform="translate(128,0)"/>
<path d="M0 0 C5.61 0 11.22 0 17 0 C16.02986451 7.31332911 14.97617204 14.57301106 13.5625 21.8125 C13.33691406 22.97394531 13.11132812 24.13539062 12.87890625 25.33203125 C12.58886719 26.21246094 12.29882812 27.09289062 12 28 C11.01 28.33 10.02 28.66 9 29 C8.67 28.34 8.34 27.68 8 27 C7.34 27.66 6.68 28.32 6 29 C0.66666667 29.33333333 0.66666667 29.33333333 -2 28 C-2.37890625 26.0390625 -2.37890625 26.0390625 -2.5625 23.625 C-2.78753088 20.80522535 -3.09554568 18.71336297 -4 16 C-3.43002939 13.21888713 -2.80003586 10.54697216 -2.0625 7.8125 C-1.381875 5.234375 -0.70125 2.65625 0 0 Z " fill="#F4CBB0" transform="translate(110,0)"/>
<path d="M0 0 C0.99 0 1.98 0 3 0 C3 18.15 3 36.3 3 55 C1.35 55 -0.3 55 -2 55 C-2 54.34 -2 53.68 -2 53 C-2.66 52.67 -3.32 52.34 -4 52 C-3.40969914 41.26584481 -2.72145246 30.53858395 -2 19.8125 C-1.9170166 18.54768799 -1.8340332 17.28287598 -1.74853516 15.97973633 C-1.62551025 14.17412231 -1.62551025 14.17412231 -1.5 12.33203125 C-1.4278125 11.25671143 -1.355625 10.1813916 -1.28125 9.07348633 C-1.0010836 6.01184149 -0.54445438 3.02484105 0 0 Z " fill="#F4D2B7" transform="translate(177,0)"/>
<path d="M0 0 C1.42060454 4.26181363 -0.33186996 7.2378619 -1.875 11.25 C-3.90117264 16.55135582 -5.27983711 21.33139113 -6 27 C-6.9873454 28.67419438 -7.98812105 30.34051852 -9 32 C-9.49049439 33.86387867 -9.97551523 35.72989479 -10.40234375 37.609375 C-11.90299576 43.61198304 -13.55580219 49.83370329 -17 55 C-17.71524553 57.25600361 -18.37122635 59.53088387 -19 61.8125 C-22.26627026 73.30474434 -26.14674948 84.59597452 -29.96054077 95.91487122 C-31.5975421 100.78068099 -33.20393915 105.65603867 -34.80078125 110.53515625 C-35.48057188 112.6042798 -36.1609051 114.67322405 -36.84146118 116.74209595 C-37.2785339 118.0747434 -37.71359143 119.40805357 -38.14657593 120.74203491 C-38.74851899 122.59542663 -39.35844488 124.44621999 -39.96875 126.296875 C-40.31357422 127.35229492 -40.65839844 128.40771484 -41.01367188 129.49511719 C-42 132 -42 132 -44 134 C-43.9108799 132.64475992 -43.80272007 131.290771 -43.6875 129.9375 C-43.62949219 129.18339844 -43.57148437 128.42929688 -43.51171875 127.65234375 C-42.97452129 124.86793861 -41.97656878 122.51448843 -40.81860352 119.9362793 C-39.30874535 116.36494465 -38.25969721 112.64134966 -37.125 108.9375 C-33.82150501 98.34748112 -30.23916229 87.86173621 -26.625 77.375 C-21.54787253 62.63364501 -16.64361653 47.8527707 -11.96435547 32.97949219 C-11.2924342 30.90351064 -10.59119996 28.83688543 -9.86767578 26.77832031 C-9.50013184 25.72999023 -9.13258789 24.68166016 -8.75390625 23.6015625 C-8.41818604 22.66908691 -8.08246582 21.73661133 -7.73657227 20.77587891 C-6.93088634 17.73953521 -6.94847208 15.12851913 -7 12 C-6 8.625 -6 8.625 -5 6 C-4.01 6 -3.02 6 -2 6 C-1.34 4.02 -0.68 2.04 0 0 Z " fill="#EBB9A3" transform="translate(45,0)"/>
<path d="M0 0 C10.33136816 -0.36897743 10.33136816 -0.36897743 13.3359375 1.2890625 C15 3 15 3 15.375 6.5625 C15 10 15 10 13 12 C13.43762807 15.17280351 14.77361505 18.05667611 16 21 C14.35 21 12.7 21 11 21 C8 15.25 8 15.25 8 13 C6.35 13 4.7 13 3 13 C3 15.64 3 18.28 3 21 C2.01 21 1.02 21 0 21 C0 14.07 0 7.14 0 0 Z " fill="#857B73" transform="translate(156,50)"/>
<path d="M0 0 C10.19694397 -0.48556876 10.19694397 -0.48556876 13.6875 1.625 C15.41943247 4.75897304 15.6612339 6.4734192 15 10 C12.9375 12.375 12.9375 12.375 10 14 C6.1875 14.25 6.1875 14.25 3 14 C3 16.31 3 18.62 3 21 C2.01 21 1.02 21 0 21 C0 14.07 0 7.14 0 0 Z " fill="#857A73" transform="translate(156,86)"/>
<path d="M0 0 C0.33 0 0.66 0 1 0 C1.14734887 4.16748541 0.76108848 7.49731245 -0.50390625 11.46484375 C-0.99141357 13.01812378 -0.99141357 13.01812378 -1.48876953 14.6027832 C-1.84310059 15.70323975 -2.19743164 16.80369629 -2.5625 17.9375 C-3.30113504 20.28374282 -4.03940949 22.63009918 -4.77734375 24.9765625 C-5.15101074 26.15508789 -5.52467773 27.33361328 -5.90966797 28.54785156 C-7.51365738 33.62631335 -9.07448046 38.71749718 -10.625 43.8125 C-10.91044678 44.74835938 -11.19589355 45.68421875 -11.48999023 46.6484375 C-13.69731581 53.91992466 -15.79225403 61.22053758 -17.85839844 68.53320312 C-20.09091157 76.40303909 -22.50936094 84.20848753 -25 92 C-25.33 92 -25.66 92 -26 92 C-25.38827434 85.1649853 -23.67285151 78.93032794 -21.6875 72.375 C-21.05190455 70.23573019 -20.41648697 68.09640753 -19.78125 65.95703125 C-19.47445313 64.93174316 -19.16765625 63.90645508 -18.8515625 62.85009766 C-15.59717718 52.13482085 -15.59717718 52.13482085 -13 41.25 C-12.35753797 38.16534889 -11.40830354 35.44088745 -10.16796875 32.546875 C-7.70475065 26.49846689 -6.00731667 20.29925323 -4.3125 14 C-3.70615083 11.77036385 -3.09816344 9.54117234 -2.48828125 7.3125 C-2.22571533 6.33925781 -1.96314941 5.36601563 -1.69262695 4.36328125 C-1 2 -1 2 0 0 Z " fill="#EABCA6" transform="translate(47,68)"/>
<path d="M0 0 C0.66 0 1.32 0 2 0 C1.01 5.94 0.02 11.88 -1 18 C-0.67 18 -0.34 18 0 18 C0 21.3 0 24.6 0 28 C5.36090593 28.53673893 5.36090593 28.53673893 10 26.5 C10.33 26.005 10.66 25.51 11 25 C11 26.32 11 27.64 11 29 C11.66 28.67 12.32 28.34 13 28 C13.85138395 25.19385494 13.85138395 25.19385494 14.5078125 21.77734375 C14.77207031 20.51728516 15.03632812 19.25722656 15.30859375 17.95898438 C15.58091259 16.61852683 15.85304559 15.27803153 16.125 13.9375 C16.40416714 12.59293661 16.68410526 11.24853305 16.96484375 9.90429688 C17.65085147 6.6043632 18.32885944 3.30298388 19 0 C20.10681613 3.37831142 19.88451479 5.83920955 19.2578125 9.31640625 C19.07863281 10.32767578 18.89945313 11.33894531 18.71484375 12.38085938 C18.52019531 13.43080078 18.32554688 14.48074219 18.125 15.5625 C17.93808594 16.61630859 17.75117187 17.67011719 17.55859375 18.75585938 C16.16292476 26.51122573 16.16292476 26.51122573 15 30 C8.07 30 1.14 30 -6 30 C-4.59511716 19.8145994 -2.46069981 9.97419585 0 0 Z " fill="#E6B29F" transform="translate(108,0)"/>
<path d="M0 0 C0.99 0.33 1.98 0.66 3 1 C3 3.31 3 5.62 3 8 C5.97 8 8.94 8 12 8 C12.28875 8.886875 12.5775 9.77375 12.875 10.6875 C13.83148748 13.50382424 14.86798946 16.25083156 16 19 C14.35 19 12.7 19 11 19 C8 13.25 8 13.25 8 11 C6.35 11 4.7 11 3 11 C3 13.64 3 16.28 3 19 C2.01 19 1.02 19 0 19 C0 12.73 0 6.46 0 0 Z " fill="#807773" transform="translate(156,52)"/>
<path d="M0 0 C0.66 0 1.32 0 2 0 C2.65117547 21.79592094 3.27787473 43.61024987 2.91378784 65.41696167 C2.88809249 67.08671457 2.87067147 68.75661691 2.86184692 70.42654419 C2.75781348 86.26977988 2.75781348 86.26977988 -3 92 C-3 89 -3 89 -1.52128601 85.83262634 C0.26347062 81.8202778 0.40371359 78.01907405 0.34057617 73.67797852 C0.34123329 72.47675606 0.34123329 72.47675606 0.34190369 71.25126648 C0.33982796 68.62689092 0.31655514 66.00316902 0.29296875 63.37890625 C0.28736846 61.55045419 0.2831004 59.72199761 0.28010559 57.89353943 C0.26869094 53.09798598 0.23925304 48.30270825 0.20599365 43.50726318 C0.17521969 38.6070936 0.16158463 33.70687914 0.14648438 28.80664062 C0.11437995 19.20430643 0.06322472 9.60217621 0 0 Z " fill="#CFC0B9" transform="translate(132,30)"/>
<path d="M0 0 C0.66 0 1.32 0 2 0 C-0.23540927 8.90776725 -3.23094379 17.1641716 -7.0625 25.5 C-8.76248597 29.27410013 -9.94616235 33.05078739 -11.07421875 37.02734375 C-13.07596517 43.45489237 -15.59093995 49.71617347 -18 56 C-18.33 56 -18.66 56 -19 56 C-18.47744884 49.05187149 -16.46021217 43.19628884 -13.96484375 36.71875 C-13.56672989 35.66465942 -13.16861603 34.61056885 -12.75843811 33.52453613 C-11.49303546 30.17982892 -10.21547671 26.8399203 -8.9375 23.5 C-8.07406125 21.22426494 -7.21142234 18.94822624 -6.34960938 16.671875 C-4.24231942 11.11103488 -2.12504687 5.55407691 0 0 Z " fill="#EABDA4" transform="translate(20,0)"/>
<path d="M0 0 C-0.99 2.64 -1.98 5.28 -3 8 C-5.01822917 7.96744792 -7.03645833 7.93489583 -9.0546875 7.90234375 C-11.08185404 7.87350758 -11.08185404 7.87350758 -13 9 C-13.33 6.36 -13.66 3.72 -14 1 C-12.68 1.33 -11.36 1.66 -10 2 C-10 1.34 -10 0.68 -10 0 C-6.7169902 -1.6415049 -3.57454967 -0.51888624 0 0 Z M-15 9 C-13.68 9.33 -12.36 9.66 -11 10 C-11 10.66 -11 11.32 -11 12 C-10.01 12.33 -9.02 12.66 -8 13 C-10.31 13.33 -12.62 13.66 -15 14 C-15 12.35 -15 10.7 -15 9 Z " fill="#F1F2F3" transform="translate(99,36)"/>
<path d="M0 0 C1.32 0 2.64 0 4 0 C3.55556907 9.93707662 1.97908307 19.45954169 0.04370117 29.19677734 C-0.44323723 31.65395104 -0.91463811 34.11377928 -1.38476562 36.57421875 C-1.69179838 38.14601136 -1.99970814 39.71763296 -2.30859375 41.2890625 C-2.44825058 42.02025299 -2.58790741 42.75144348 -2.73179626 43.50479126 C-3.41539195 46.8964185 -4.053859 49.08078849 -6 52 C-5.48438651 44.07403242 -4.15401361 36.55698073 -2.4375 28.8125 C-0.3552963 19.01907813 0.6706878 10.00070037 0 0 Z " fill="#DF9A8E" transform="translate(100,128)"/>
<path d="M0 0 C3.3 0 6.6 0 10 0 C10 0.33 10 0.66 10 1 C8.02 1 6.04 1 4 1 C3.67 4.3 3.34 7.6 3 11 C4.65 11 6.3 11 8 11 C8.33 11.99 8.66 12.98 9 14 C7.02 14 5.04 14 3 14 C3 16.31 3 18.62 3 21 C2.01 21 1.02 21 0 21 C0 14.07 0 7.14 0 0 Z " fill="#807671" transform="translate(156,86)"/>
<path d="M0 0 C0 5.28 0 10.56 0 16 C-4 14 -4 14 -6 11 C-6.44351586 6.93443799 -6.66104524 4.85935881 -4.125 1.5625 C-2 0 -2 0 0 0 Z " fill="#A29489" transform="translate(180,91)"/>
<path d="M0 0 C0.33 0 0.66 0 1 0 C1.07453636 4.85633035 1.12878329 9.71232268 1.16479492 14.5690918 C1.17981806 16.21889044 1.2002426 17.86864958 1.22631836 19.51831055 C1.26298899 21.89902536 1.27979103 24.27920908 1.29296875 26.66015625 C1.30845261 27.38960953 1.32393646 28.11906281 1.33988953 28.87062073 C1.34153576 33.95767009 0.26772587 37.44100786 -2 42 C-2.33 42 -2.66 42 -3 42 C-2.96970703 41.30962646 -2.93941406 40.61925293 -2.90820312 39.90795898 C-2.77057321 36.75120521 -2.63526771 33.59435584 -2.5 30.4375 C-2.42845703 28.80844727 -2.42845703 28.80844727 -2.35546875 27.14648438 C-2.17002398 22.78853239 -1.99634915 18.45635565 -2.03125 14.09375 C-1.99959778 10.96017997 -1.60652696 8.13304273 -1 5.0625 C-0.814375 4.10472656 -0.62875 3.14695312 -0.4375 2.16015625 C-0.2209375 1.09087891 -0.2209375 1.09087891 0 0 Z " fill="#F1B8A4" transform="translate(152,72)"/>
<path d="M0 0 C1.0725 0.103125 2.145 0.20625 3.25 0.3125 C2.92 1.6325 2.59 2.9525 2.25 4.3125 C1.26 4.3125 0.27 4.3125 -0.75 4.3125 C-0.75 5.3025 -0.75 6.2925 -0.75 7.3125 C0.57 7.6425 1.89 7.9725 3.25 8.3125 C1.6 8.9725 -0.05 9.6325 -1.75 10.3125 C-2.08 9.6525 -2.41 8.9925 -2.75 8.3125 C-4.4 8.6425 -6.05 8.9725 -7.75 9.3125 C-7.75 5.3125 -7.75 5.3125 -6.1875 2.5625 C-3.75 0.3125 -3.75 0.3125 0 0 Z " fill="#C9C8C4" transform="translate(84.75,99.6875)"/>
<path d="M0 0 C0.33 0 0.66 0 1 0 C1.44408799 10.92949883 -0.48502301 21.40116841 -3 32 C-3.33 32 -3.66 32 -4 32 C-3.8594438 28.66642262 -3.71158198 25.33320611 -3.5625 22 C-3.52318359 21.06542969 -3.48386719 20.13085938 -3.44335938 19.16796875 C-3.19609347 13.72811877 -2.75680832 8.39305423 -2 3 C-1.34 3 -0.68 3 0 3 C0 2.01 0 1.02 0 0 Z " fill="#E3AB9B" transform="translate(138,40)"/>
<path d="M0 0 C2.33294775 -0.04241723 4.66702567 -0.04092937 7 0 C8 1 8 1 8.0625 4.0625 C8.041875 5.031875 8.02125 6.00125 8 7 C5.29120665 8.35439668 2.99066732 8.06501451 0 8 C0 5.36 0 2.72 0 0 Z " fill="#DDC5B1" transform="translate(159,89)"/>
<path d="M0 0 C0.33 0 0.66 0 1 0 C1.33150299 6.65033799 1.62522358 13.30134175 1.87988281 19.95507812 C1.95534985 21.8681368 2.0370946 23.78096879 2.12792969 25.69335938 C2.23540311 28.02470603 2.31036461 30.35463148 2.375 32.6875 C2.41302734 33.37448975 2.45105469 34.06147949 2.49023438 34.76928711 C2.5234375 36.69921875 2.5234375 36.69921875 2 40 C-0.5234375 42.45703125 -0.5234375 42.45703125 -3 44 C-2.67854004 43.36102783 -2.35708008 42.72205566 -2.02587891 42.0637207 C-0.66282115 37.99303727 -0.64550972 34.2468939 -0.5859375 29.98046875 C-0.56657135 29.12189774 -0.5472052 28.26332672 -0.5272522 27.3787384 C-0.46768444 24.64842526 -0.42116266 21.91806943 -0.375 19.1875 C-0.33679921 17.33136227 -0.29774625 15.47524188 -0.2578125 13.61914062 C-0.16200173 9.07956856 -0.07788679 4.53991354 0 0 Z " fill="#E9C4B3" transform="translate(134,76)"/>
<path d="M0 0 C0.66 0 1.32 0 2 0 C3.32931076 7.43670355 2.69965511 14.50452315 2.0625 22 C1.96259766 23.25167969 1.86269531 24.50335938 1.75976562 25.79296875 C1.51372328 28.86263997 1.26027385 31.93150824 1 35 C0.67 35 0.34 35 0 35 C0 23.45 0 11.9 0 0 Z " fill="#ECCAB7" transform="translate(134,30)"/>
<path d="M0 0 C2.33294775 -0.04241723 4.66702567 -0.04092937 7 0 C8 1 8 1 8.125 3.5 C8 6 8 6 7 7 C4.66702567 7.04092937 2.33294775 7.04241723 0 7 C0 4.69 0 2.38 0 0 Z " fill="#EAD1BC" transform="translate(159,53)"/>
<path d="M0 0 C0.3125 2.75 0.3125 2.75 0 6 C-2.5 8.375 -2.5 8.375 -5 10 C-5.99 7.69 -6.98 5.38 -8 3 C-5.53387212 -0.1151089 -3.89156016 -0.31553191 0 0 Z " fill="#F0D2BB" transform="translate(180,58)"/>
<path d="M0 0 C5.41538462 -0.36923077 5.41538462 -0.36923077 8.375 1.5 C8.91125 1.995 9.4475 2.49 10 3 C11.299375 2.2575 11.299375 2.2575 12.625 1.5 C16.10749623 -0.0477761 18.24759458 -0.26802896 22 0 C21.443125 0.268125 20.88625 0.53625 20.3125 0.8125 C17.93092172 1.9744356 17.93092172 1.9744356 15.625 3.625 C12.53219627 5.24504005 10.44287486 5.24020057 7 5 C6.67 4.01 6.34 3.02 6 2 C4.68 2 3.36 2 2 2 C1.67 2.99 1.34 3.98 1 5 C0.67 5 0.34 5 0 5 C0 3.35 0 1.7 0 0 Z " fill="#E8CAB9" transform="translate(81,127)"/>
<path d="M0 0 C1.65 0 3.3 0 5 0 C5.99 2.31 6.98 4.62 8 7 C6.35 7.66 4.7 8.32 3 9 C2.67 8.34 2.34 7.68 2 7 C1.01 7.495 1.01 7.495 0 8 C0 5.36 0 2.72 0 0 Z " fill="#EDCAAC" transform="translate(159,63)"/>
<path d="M0 0 C2.0625 0.4375 2.0625 0.4375 4 1 C2.515 3.475 2.515 3.475 1 6 C3.64 6 6.28 6 9 6 C9 6.33 9 6.66 9 7 C6.36 7 3.72 7 1 7 C1 13.93 1 20.86 1 28 C0.67 28 0.34 28 0 28 C-0.19581346 23.52115561 -0.3802636 19.04191574 -0.5625 14.5625 C-0.61857422 13.28310547 -0.67464844 12.00371094 -0.73242188 10.68554688 C-0.78076172 9.47060547 -0.82910156 8.25566406 -0.87890625 7.00390625 C-0.9260376 5.87799072 -0.97316895 4.7520752 -1.02172852 3.59204102 C-1 1 -1 1 0 0 Z " fill="#D8BDA5" transform="translate(155,79)"/>
<path d="M0 0 C2.86724686 0.57344937 3.8614515 0.8614515 6 3 C5.443125 3.226875 4.88625 3.45375 4.3125 3.6875 C1.36753316 5.35896766 -0.68156544 7.55276352 -3 10 C-3.66 9.67 -4.32 9.34 -5 9 C-4.34 7.02 -3.68 5.04 -3 3 C-2.01 3.33 -1.02 3.66 0 4 C0 2.68 0 1.36 0 0 Z " fill="#E8C9B1" transform="translate(174,88)"/>
<path d="M0 0 C1.32 0 2.64 0 4 0 C3.67 4.29 3.34 8.58 3 13 C0.41073669 10.41073669 0.62601957 8.97294721 0.375 5.375 C0.30023438 4.37210938 0.22546875 3.36921875 0.1484375 2.3359375 C0.09945312 1.56507813 0.05046875 0.79421875 0 0 Z " fill="#ECAD9C" transform="translate(100,128)"/>
<path d="M0 0 C0.66 0 1.32 0 2 0 C0.27068234 7.00897689 -1.83967342 13.50288191 -5 20 C-6.02826931 16.86332092 -5.99386675 15.16815258 -4.78515625 12.109375 C-4.37426758 11.04589844 -4.37426758 11.04589844 -3.95507812 9.9609375 C-3.66052734 9.23132812 -3.36597656 8.50171875 -3.0625 7.75 C-2.77181641 7.00492187 -2.48113281 6.25984375 -2.18164062 5.4921875 C-1.46426278 3.65758186 -0.73342561 1.82824935 0 0 Z " fill="#E8AE98" transform="translate(20,0)"/>
<path d="M0 0 C2.05395559 3.08093338 2.22502666 3.56743692 2.0625 7 C1.93936823 9.82667719 2.07450994 11.22352981 3 14 C2.5625 16.1875 2.5625 16.1875 2 18 C1.01 18 0.02 18 -1 18 C-0.505 9.09 -0.505 9.09 0 0 Z " fill="#F6BFAA" transform="translate(148,116)"/>
<path d="M0 0 C0.99 0.33 1.98 0.66 3 1 C2.67 1.66 2.34 2.32 2 3 C3.65 3 5.3 3 7 3 C7 3.99 7 4.98 7 6 C5.865625 6.12375 4.73125 6.2475 3.5625 6.375 C1.7990625 6.684375 1.7990625 6.684375 0 7 C-0.33 7.66 -0.66 8.32 -1 9 C-2.60031344 5.79937313 -1.03173691 3.27728194 0 0 Z " fill="#C9AF9A" transform="translate(173,52)"/>
<path d="M0 0 C0.33 0.66 0.66 1.32 1 2 C1.66 2 2.32 2 3 2 C3.33 1.34 3.66 0.68 4 0 C5.32 2.97 6.64 5.94 8 9 C6.35 9 4.7 9 3 9 C0 3.375 0 3.375 0 0 Z " fill="#8A7D75" transform="translate(164,62)"/>
<path d="M0 0 C-1.48113281 0.07347656 -1.48113281 0.07347656 -2.9921875 0.1484375 C-4.27351563 0.22320312 -5.55484375 0.29796875 -6.875 0.375 C-8.78925781 0.47941406 -8.78925781 0.47941406 -10.7421875 0.5859375 C-14.08061699 0.67241106 -14.08061699 0.67241106 -16 3 C-16.33 2.34 -16.66 1.68 -17 1 C-19.64 1 -22.28 1 -25 1 C-24.67 0.34 -24.34 -0.32 -24 -1 C-20.37584067 -1.22523024 -16.75075781 -1.42731308 -13.125 -1.625 C-12.09246094 -1.68945312 -11.05992188 -1.75390625 -9.99609375 -1.8203125 C-9.00996094 -1.871875 -8.02382812 -1.9234375 -7.0078125 -1.9765625 C-6.09660645 -2.02893066 -5.18540039 -2.08129883 -4.24658203 -2.13525391 C-2 -2 -2 -2 0 0 Z " fill="#D3BDB1" transform="translate(120,127)"/>
<path d="M0 0 C1.485 0.99 1.485 0.99 3 2 C2.25 9.625 2.25 9.625 0 13 C0 8.71 0 4.42 0 0 Z " fill="#EFCEB6" transform="translate(1,38)"/>
<path d="M0 0 C0 2.31 0 4.62 0 7 C-1.65 7 -3.3 7 -5 7 C-4.53479806 4.30182875 -3.4249099 0 0 0 Z " fill="#8B7D73" transform="translate(180,64)"/>
<path d="M0 0 C0.66 0 1.32 0 2 0 C2 3.3 2 6.6 2 10 C-0.0625 7.75 -0.0625 7.75 -2 5 C-1.81190541 2.74286486 -1.60454441 1.60454441 0 0 Z " fill="#E4C1AD" transform="translate(170,60)"/>
<path d="M0 0 C0.66 0 1.32 0 2 0 C2.99 2.31 3.98 4.62 5 7 C3.35 7 1.7 7 0 7 C0 4.69 0 2.38 0 0 Z " fill="#E3CAB8" transform="translate(159,53)"/>
<path d="M0 0 C1.231394 3.69418201 0.64432764 6.2056261 0 10 C-0.99 10 -1.98 10 -3 10 C-2.25 2.25 -2.25 2.25 0 0 Z " fill="#F8C5AF" transform="translate(126,19)"/>
<path d="M0 0 C1.65 0 3.3 0 5 0 C5.33 0.99 5.66 1.98 6 3 C4.68 2.67 3.36 2.34 2 2 C1.67 3.98 1.34 5.96 1 8 C0.67 8 0.34 8 0 8 C0 5.36 0 2.72 0 0 Z " fill="#DAC2B2" transform="translate(159,63)"/>
<path d="M0 0 C1.41377341 2.63904371 2.37240135 5.07120629 3 8 C2.01 7.67 1.02 7.34 0 7 C-0.33 7.66 -0.66 8.32 -1 9 C-1.09765625 2.84765625 -1.09765625 2.84765625 -1 1 C-0.67 0.67 -0.34 0.34 0 0 Z " fill="#F1BDA2" transform="translate(147,90)"/>
<path d="M0 0 C0.98120464 3.05263664 0.98120464 4.94736336 0 8 C-1.65 8 -3.3 8 -5 8 C-4.34 7.67 -3.68 7.34 -3 7 C-3 6.01 -3 5.02 -3 4 C-2.34 3.67 -1.68 3.34 -1 3 C-0.67 2.01 -0.34 1.02 0 0 Z " fill="#F8C4B5" transform="translate(69,172)"/>
<path d="M0 0 C0.99 0.495 0.99 0.495 2 1 C2 1.66 2 2.32 2 3 C2.99 3.33 3.98 3.66 5 4 C5 4.99 5 5.98 5 7 C3.0625 6.3125 3.0625 6.3125 1 5 C0.25 2.375 0.25 2.375 0 0 Z " fill="#837872" transform="translate(175,100)"/>
<path d="M0 0 C2.475 0.495 2.475 0.495 5 1 C5 2.32 5 3.64 5 5 C3.0625 4.1875 3.0625 4.1875 1 3 C0.67 2.01 0.34 1.02 0 0 Z " fill="#F5CDAE" transform="translate(161,90)"/>
<path d="M0 0 C0.99 0.33 1.98 0.66 3 1 C2.01 2.98 1.02 4.96 0 7 C-0.66 7 -1.32 7 -2 7 C-1.125 2.25 -1.125 2.25 0 0 Z " fill="#F6BEA9" transform="translate(22,0)"/>
</svg>
